Coordinates
version=1
nRows=11
nColumns=46
inDegrees=yes

Units are S.I. units (second, meters, Newtons, ...)
Angles are in degrees.

endheader
time	pelvis_tilt	pelvis_list	pelvis_rotation	pelvis_tx	pelvis_ty	pelvis_tz	bb_angle	bb_tx	bb_ty	bb_tz	hip_flexion_r	hip_adduction_r	hip_rotation_r	knee_angle_r	knee_angle_r_beta	ankle_angle_r	subtalar_angle_r	mtp_angle_r	crank_angle_r	hip_flexion_l	hip_adduction_l	hip_rotation_l	knee_angle_l	knee_angle_l_beta	ankle_angle_l	subtalar_angle_l	mtp_angle_l	crank_angle_l	lumbar_extension	lumbar_bending	lumbar_rotation	arm_flex_r	arm_add_r	arm_rot_r	elbow_flex_r	pro_sup_r	wrist_flex_r	wrist_dev_r	arm_flex_l	arm_add_l	arm_rot_l	elbow_flex_l	pro_sup_l	wrist_flex_l	wrist_dev_l
      0.00000000	    -15.43115174	      1.20983150	      2.61067462	      0.12288908	      1.04042498	     -0.23037820	      0.00000000	      0.50000000	      0.00000000	      0.25000000	     51.95070517	     -6.81003765	     -0.08746252	     78.25994328	      1.36589368	     15.44389006	     -5.30893703	      0.00000000	      0.00000000	     79.54939971	     -6.60483157	     -3.08888556	     72.56966644	      1.26657962	     -3.56980936	     -3.86152580	      0.00000000	      0.00000000	    -58.59568512	      0.03570218	     -2.51300687	     89.69487098	    -13.07368230	     25.03733863	     51.80275654	     27.67638279	      0.00000000	      0.00000000	     89.74275316	    -19.24332911	     29.21654373	     56.14778996	     27.73595278	      0.00000000	      0.00000000
      0.00500000	    -15.43395657	      1.19820398	      2.61503278	      0.12281271	      1.04041696	     -0.23034932	      0.00000000	      0.50000000	      0.00000000	      0.25000000	     51.94215293	     -6.79717002	     -0.10498562	     78.24069642	      1.36555776	     15.44015260	     -5.35498992	      0.00000000	      0.00000000	     79.56815698	     -6.60091003	     -3.06005100	     72.58340722	      1.26681944	     -3.54959841	     -3.83252159	      0.00000000	      0.00000000	    -58.58243965	      0.04632411	     -2.50673129	     89.69632784	    -13.00492496	     24.86166712	     51.47070025	     29.21043982	      0.00000000	      0.00000000	     89.74238606	    -19.16039252	     29.03748534	     55.81824423	     29.14025161	      0.00000000	      0.00000000
      0.01000000	    -15.44016194	      1.19947800	      2.62024373	      0.12274061	      1.04041799	     -0.23032130	      0.00000000	      0.50000000	      0.00000000	      0.25000000	     51.93618517	     -6.79903509	     -0.11143925	     78.21459915	      1.36510228	     15.45639739	     -5.34658665	      0.00000000	      0.00000000	     79.58101114	     -6.59547047	     -3.05991341	     72.58384649	      1.26682710	     -3.54361639	     -3.84576572	      0.00000000	      0.00000000	    -58.57150348	      0.05899963	     -2.47693939	     89.69643112	    -12.97723434	     24.74764031	     51.30240488	     30.05214904	      0.00000000	      0.00000000	     89.74255599	    -19.05356158	     28.88705496	     55.62224431	     29.83527724	      0.00000000	      0.00000000
      0.01500000	    -15.47639502	      1.22695931	      2.64788088	      0.12272330	      1.04044303	     -0.23020296	      0.00000000	      0.50000000	      0.00000000	      0.25000000	     51.95134494	     -6.81952909	     -0.07733913	     78.17082167	      1.36433822	     15.45430947	     -5.35884424	      0.00000000	      0.00000000	     79.61107837	     -6.56976541	     -3.06817016	     72.57440410	      1.26666230	     -3.54757750	     -3.81429321	      0.00000000	      0.00000000	    -58.51234792	      0.06192253	     -2.51850476	     89.69683488	    -12.92344682	     24.72192006	     51.14301398	     30.53894430	      0.00000000	      0.00000000	     89.74151091	    -18.91665934	     28.74443202	     55.41089379	     30.20610397	      0.00000000	      0.00000000
      0.02000000	    -15.48431072	      1.22163829	      2.59066648	      0.12255352	      1.04045173	     -0.23021237	      0.00000000	      0.50000000	      0.00000000	      0.25000000	     51.96580471	     -6.76899034	     -0.00527501	     78.17563652	      1.36442225	     15.57692775	     -5.35064747	      0.00000000	      0.00000000	     79.64605308	     -6.61325788	     -3.04567233	     72.64146688	      1.26783277	     -3.48484659	     -3.93056710	      0.00000000	      0.00000000	    -58.50567380	      0.01349111	     -2.45635143	     89.69439701	    -12.91854169	     24.64160768	     51.13710925	     30.54772571	      0.00000000	      0.00000000	     89.74139492	    -18.78238900	     28.56292164	     55.41022123	     30.15153452	      0.00000000	      0.00000000
      0.02500000	    -15.51307643	      1.19994736	      2.63502787	      0.12252938	      1.04046767	     -0.23025548	      0.00000000	      0.50000000	      0.00000000	      0.25000000	     51.96997678	     -6.80239621	     -0.08180938	     78.13996132	      1.36379960	     15.56155252	     -5.35277832	      0.00000000	      0.00000000	     79.68153611	     -6.56780343	     -3.01495885	     72.61809660	      1.26742488	     -3.47338772	     -3.91408443	      0.00000000	      0.00000000	    -58.46657335	      0.06797099	     -2.44211837	     89.69609756	    -12.93572443	     24.61614562	     50.93675991	     31.39792714	      0.00000000	      0.00000000	     89.74044034	    -18.68630293	     28.48680219	     55.12779563	     30.93825150	      0.00000000	      0.00000000
      0.03000000	    -15.52578449	      1.22091240	      2.65218230	      0.12246775	      1.04047178	     -0.23023505	      0.00000000	      0.50000000	      0.00000000	      0.25000000	     51.96582023	     -6.83031223	     -0.07771542	     78.11094995	      1.36329326	     15.62707056	     -5.32920919	      0.00000000	      0.00000000	     79.69681542	     -6.54304504	     -3.02944423	     72.61497134	      1.26737034	     -3.50273007	     -3.93135852	      0.00000000	      0.00000000	    -58.46049882	      0.04780429	     -2.44606421	     89.69434166	    -12.94416682	     24.41334726	     50.62786770	     33.14693010	      0.00000000	      0.00000000	     89.73963219	    -18.54845380	     28.49338167	     54.81501920	     32.71627137	      0.00000000	      0.00000000
      0.03500000	    -15.59213921	      1.22490397	      2.58647716	      0.12242847	      1.04032263	     -0.23013796	      0.00000000	      0.50000000	      0.00000000	      0.25000000	     52.04454379	     -6.77388670	     -0.01335297	     78.10016327	      1.36310500	     15.67196316	     -5.26150040	      0.00000000	      0.00000000	     79.78347654	     -6.61451799	     -3.04912510	     72.65455111	      1.26806113	     -3.46554173	     -3.90257186	      0.00000000	      0.00000000	    -58.37637097	      0.00055940	     -2.45834751	     89.69521735	    -12.91154202	     24.56018557	     50.58799589	     33.20785429	      0.00000000	      0.00000000	     89.74018949	    -18.56698118	     28.18308290	     54.65309242	     32.62161920	      0.00000000	      0.00000000
      0.04000000	    -15.58697186	      1.23326896	      2.60408037	      0.12240219	      1.04037095	     -0.23015794	      0.00000000	      0.50000000	      0.00000000	      0.25000000	     52.01504466	     -6.79934255	     -0.02806959	     78.06385962	      1.36247138	     15.69873916	     -5.29694138	      0.00000000	      0.00000000	     79.77685594	     -6.59530064	     -3.06075930	     72.65234101	      1.26802256	     -3.44680698	     -3.88964996	      0.00000000	      0.00000000	    -58.40392355	      0.01494458	     -2.40692171	     89.69532593	    -12.95605261	     24.40650522	     50.61666650	     33.54920819	      0.00000000	      0.00000000	     89.73889118	    -18.37763060	     27.96000052	     54.56914731	     32.88879158	      0.00000000	      0.00000000
      0.04500000	    -15.55471323	      1.22418663	      2.60443614	      0.12237824	      1.04043374	     -0.23011710	      0.00000000	      0.50000000	      0.00000000	      0.25000000	     51.94861661	     -6.77329841	     -0.00842957	     78.01807716	      1.36167232	     15.71576069	     -5.29275162	      0.00000000	      0.00000000	     79.75310691	     -6.59992617	     -3.04636212	     72.67373933	      1.26839603	     -3.44735766	     -3.90373986	      0.00000000	      0.00000000	    -58.43334231	      0.13028485	     -2.28331110	     89.69482467	    -12.93575281	     24.35334648	     50.63745385	     33.89801041	      0.00000000	      0.00000000	     89.73635663	    -18.28882404	     27.80258345	     54.40498068	     33.16457755	      0.00000000	      0.00000000
      0.05000000	    -15.54565693	      1.24365406	      2.60783702	      0.12233596	      1.04040537	     -0.23005394	      0.00000000	      0.50000000	      0.00000000	      0.25000000	     51.95709978	     -6.80131388	     -0.03232921	     78.03694621	      1.36200165	     15.73206079	     -5.27850533	      0.00000000	      0.00000000	     79.74617079	     -6.59707082	     -3.05803560	     72.68078858	      1.26851906	     -3.40180660	     -3.89622703	      0.00000000	      0.00000000	    -58.45655205	      0.06027367	     -2.25996521	     89.69519512	    -13.05730505	     24.29622670	     50.65642994	     34.12289841	      0.00000000	      0.00000000	     89.73202936	    -18.06744882	     27.99792557	     54.36835489	     33.38214891	      0.00000000	      0.00000000
